M48
;Layer_Color=9474304
;FILE_FORMAT=4:4
METRIC,LZ
;TYPE=PLATED
T1F00S00C0.5000
T2F00S00C0.6000
T3F00S00C0.8000
T4F00S00C0.9000
T5F00S00C0.9100
T6F00S00C1.0000
T7F00S00C1.0500
T8F00S00C1.1000
T9F00S00C1.5000
T10F00S00C3.0000
;TYPE=NON_PLATED
T11F00S00C1.3000
%
T01
X00562Y-004785
X0058925Y-0042875
X0059Y-003895
X0059725Y-00317
X0057775Y-0031675
X0056575Y-00327
X0061625Y-002975
X006575Y-0030525
X0065775Y-0034025
X005825Y-0021325
X0053275Y-0025725
X005365Y-0032925
X0053625Y-00342
X0048775Y-00375
X00434Y-003485
X00421Y-0033
X0043925Y-00305
X0057725Y-001935
T02
X0043642Y-0014982
X0048522
T03
X0087Y-00259
Y-00239
Y-00219
T04
X0045262Y-0065738
X0047762
X0050262
X006345Y-00237
Y-002116
T05
X0009569Y-0068052
X0012109
X0070893Y-0053137
X0073433
X0012109Y-00502083
X0009569
Y-00412864
X0012109
Y-00323646
X0009569
Y-00234427
X0012109
Y-00591301
X0009569
Y-00145209
X0012109
Y-0005599
X0009569
T06
X0029584Y-0049452
Y-0044952
X0036084
Y-0049452
X0036025Y-0032175
Y-0027675
X0029525
Y-0032175
T07
X0078299Y-0061773
X0080799
Y-0014402
X0078299
T08
X0047235Y-0044805
Y-0042265
X0049775
Y-0044805
X0052315
Y-0042265
T09
X0087Y-0028
Y-00198
T10
X0002Y-0071
X00875
X0002Y-0002
X00875
T11
X0076699Y-0063773
Y-0016402
M30
