G04*
G04 #@! TF.GenerationSoftware,Altium Limited,Altium Designer,21.9.2 (33)*
G04*
G04 Layer_Color=255*
%FSLAX44Y44*%
%MOMM*%
G71*
G04*
G04 #@! TF.SameCoordinates,0E528642-7EEA-4571-B266-ABD313229C03*
G04*
G04*
G04 #@! TF.FilePolarity,Positive*
G04*
G01*
G75*
%ADD57C,1.4000*%
%ADD58C,1.3000*%
%ADD59C,2.2500*%
%ADD60R,1.5000X1.5000*%
%ADD61C,1.5000*%
%ADD62C,1.4160*%
%ADD63R,1.5000X1.5000*%
%ADD64C,1.2000*%
%ADD65R,1.6500X1.6500*%
%ADD66C,1.6500*%
%ADD67R,1.5750X1.5750*%
%ADD68C,1.5750*%
%ADD69C,0.6500*%
%ADD70C,3.0000*%
D57*
X502620Y-657380D02*
D03*
X477620D02*
D03*
X452620D02*
D03*
D58*
X870000Y-259000D02*
D03*
Y-239000D02*
D03*
Y-219000D02*
D03*
D59*
Y-280000D02*
D03*
Y-198000D02*
D03*
D60*
X360250Y-321750D02*
D03*
X360840Y-494520D02*
D03*
D61*
X295250Y-321750D02*
D03*
X360250Y-276750D02*
D03*
X295250D02*
D03*
X295840Y-449520D02*
D03*
X360840D02*
D03*
X295840Y-494520D02*
D03*
X634500Y-211600D02*
D03*
D62*
X121090Y-55990D02*
D03*
X95690D02*
D03*
Y-145209D02*
D03*
X121090D02*
D03*
Y-234427D02*
D03*
X95690D02*
D03*
Y-323646D02*
D03*
X121090D02*
D03*
Y-412864D02*
D03*
X95690D02*
D03*
Y-502083D02*
D03*
X121090D02*
D03*
Y-591301D02*
D03*
X95690D02*
D03*
Y-680520D02*
D03*
X121090D02*
D03*
X734330Y-531370D02*
D03*
X708930D02*
D03*
D63*
X634500Y-237000D02*
D03*
D64*
X436420Y-149820D02*
D03*
X485220D02*
D03*
D65*
X472350Y-448050D02*
D03*
D66*
Y-422650D02*
D03*
X497750Y-448050D02*
D03*
Y-422650D02*
D03*
X523150Y-448050D02*
D03*
Y-422650D02*
D03*
D67*
X807990Y-617730D02*
D03*
Y-144020D02*
D03*
D68*
X782990Y-617730D02*
D03*
Y-144020D02*
D03*
D69*
X766990Y-637730D02*
D03*
Y-164020D02*
D03*
D70*
X875000Y-20000D02*
D03*
Y-710000D02*
D03*
X20000D02*
D03*
Y-20000D02*
D03*
M02*
