G04*
G04 #@! TF.GenerationSoftware,Altium Limited,Altium Designer,21.9.2 (33)*
G04*
G04 Layer_Color=8388736*
%FSLAX44Y44*%
%MOMM*%
G71*
G04*
G04 #@! TF.SameCoordinates,0E528642-7EEA-4571-B266-ABD313229C03*
G04*
G04*
G04 #@! TF.FilePolarity,Negative*
G04*
G01*
G75*
%ADD29R,1.1532X1.6032*%
%ADD30O,1.8532X0.6532*%
%ADD31O,0.6532X1.8532*%
%ADD32R,1.2032X1.1532*%
%ADD33R,0.9532X0.5032*%
%ADD34R,0.6532X0.5032*%
%ADD35R,2.1132X1.4382*%
%ADD36R,7.2032X8.5332*%
%ADD37R,2.3632X1.2732*%
%ADD38R,1.1132X1.5932*%
%ADD39R,1.6732X1.2232*%
%ADD40R,3.7532X2.0032*%
%ADD41C,1.6032*%
%ADD42C,1.5032*%
%ADD43C,2.4532*%
%ADD44R,1.7032X1.7032*%
%ADD45C,1.7032*%
%ADD46C,1.6192*%
%ADD47R,1.7032X1.7032*%
%ADD48C,1.4032*%
%ADD49R,1.8532X1.8532*%
%ADD50C,1.8532*%
%ADD51R,1.7782X1.7782*%
%ADD52C,1.7782*%
%ADD53C,0.8532*%
%ADD54C,3.2032*%
%ADD55C,0.9032*%
D29*
X620500Y-264000D02*
D03*
X639500D02*
D03*
X773500Y-531250D02*
D03*
X792500D02*
D03*
X727930Y-611380D02*
D03*
X708930D02*
D03*
X663210Y-579630D02*
D03*
X682210D02*
D03*
X153500Y-55990D02*
D03*
X172500D02*
D03*
X153500Y-145209D02*
D03*
X172500D02*
D03*
X153500Y-234427D02*
D03*
X172500D02*
D03*
X153500Y-323646D02*
D03*
X172500D02*
D03*
X153500Y-412864D02*
D03*
X172500D02*
D03*
X153500Y-502083D02*
D03*
X172500D02*
D03*
X153500Y-591301D02*
D03*
X172500D02*
D03*
X153500Y-680520D02*
D03*
X172500D02*
D03*
D30*
X568050Y-227780D02*
D03*
Y-235780D02*
D03*
Y-243780D02*
D03*
Y-251780D02*
D03*
Y-259780D02*
D03*
Y-267780D02*
D03*
Y-275780D02*
D03*
Y-283780D02*
D03*
X484050D02*
D03*
Y-275780D02*
D03*
Y-267780D02*
D03*
Y-259780D02*
D03*
Y-251780D02*
D03*
Y-243780D02*
D03*
Y-235780D02*
D03*
Y-227780D02*
D03*
D31*
X554050Y-297780D02*
D03*
X546050D02*
D03*
X538050D02*
D03*
X530050D02*
D03*
X522050D02*
D03*
X514050D02*
D03*
X506050D02*
D03*
X498050D02*
D03*
Y-213780D02*
D03*
X506050D02*
D03*
X514050D02*
D03*
X522050D02*
D03*
X530050D02*
D03*
X538050D02*
D03*
X546050D02*
D03*
X554050D02*
D03*
D32*
X672510Y-620980D02*
D03*
D33*
X671560Y-611230D02*
D03*
D34*
X662760Y-624230D02*
D03*
Y-617730D02*
D03*
Y-611230D02*
D03*
X682260D02*
D03*
Y-617730D02*
D03*
Y-624230D02*
D03*
D35*
X829950Y-291775D02*
D03*
Y-387425D02*
D03*
D36*
X804500Y-339600D02*
D03*
D37*
X697800Y-365000D02*
D03*
Y-339600D02*
D03*
Y-314200D02*
D03*
D38*
X471670Y-106640D02*
D03*
X488070D02*
D03*
X446160D02*
D03*
X429760D02*
D03*
D39*
X534750Y-140250D02*
D03*
Y-156250D02*
D03*
D40*
X703520Y-241810D02*
D03*
X757520D02*
D03*
X703520Y-437390D02*
D03*
X757520D02*
D03*
D41*
X502620Y-657380D02*
D03*
X477620D02*
D03*
X452620D02*
D03*
D42*
X870000Y-259000D02*
D03*
Y-239000D02*
D03*
Y-219000D02*
D03*
D43*
Y-280000D02*
D03*
Y-198000D02*
D03*
D44*
X360250Y-321750D02*
D03*
X360840Y-494520D02*
D03*
D45*
X295250Y-321750D02*
D03*
X360250Y-276750D02*
D03*
X295250D02*
D03*
X295840Y-449520D02*
D03*
X360840D02*
D03*
X295840Y-494520D02*
D03*
X634500Y-211600D02*
D03*
D46*
X121090Y-55990D02*
D03*
X95690D02*
D03*
Y-145209D02*
D03*
X121090D02*
D03*
Y-234427D02*
D03*
X95690D02*
D03*
Y-323646D02*
D03*
X121090D02*
D03*
Y-412864D02*
D03*
X95690D02*
D03*
Y-502083D02*
D03*
X121090D02*
D03*
Y-591301D02*
D03*
X95690D02*
D03*
Y-680520D02*
D03*
X121090D02*
D03*
X734330Y-531370D02*
D03*
X708930D02*
D03*
D47*
X634500Y-237000D02*
D03*
D48*
X436420Y-149820D02*
D03*
X485220D02*
D03*
D49*
X472350Y-448050D02*
D03*
D50*
Y-422650D02*
D03*
X497750Y-448050D02*
D03*
Y-422650D02*
D03*
X523150Y-448050D02*
D03*
Y-422650D02*
D03*
D51*
X807990Y-617730D02*
D03*
Y-144020D02*
D03*
D52*
X782990Y-617730D02*
D03*
Y-144020D02*
D03*
D53*
X766990Y-637730D02*
D03*
Y-164020D02*
D03*
D54*
X875000Y-20000D02*
D03*
Y-710000D02*
D03*
X20000D02*
D03*
Y-20000D02*
D03*
D55*
X421000Y-330000D02*
D03*
X657500Y-305250D02*
D03*
X597250Y-317000D02*
D03*
X577750Y-316750D02*
D03*
X532750Y-257250D02*
D03*
X657750Y-340250D02*
D03*
X562000Y-478500D02*
D03*
X439250Y-305000D02*
D03*
X565750Y-327000D02*
D03*
X536500Y-329250D02*
D03*
X434000Y-348500D02*
D03*
X536250Y-342000D02*
D03*
X582500Y-213250D02*
D03*
X590000Y-389500D02*
D03*
X589250Y-428750D02*
D03*
X577250Y-193500D02*
D03*
X616250Y-297500D02*
D03*
X487750Y-375000D02*
D03*
M02*
