G04*
G04 #@! TF.GenerationSoftware,Altium Limited,Altium Designer,21.9.2 (33)*
G04*
G04 Layer_Color=32768*
%FSLAX44Y44*%
%MOMM*%
G71*
G04*
G04 #@! TF.SameCoordinates,0E528642-7EEA-4571-B266-ABD313229C03*
G04*
G04*
G04 #@! TF.FilePolarity,Positive*
G04*
G01*
G75*
%ADD11C,0.1000*%
%ADD72C,0.0500*%
D11*
X418120Y-701380D02*
X537120D01*
X418120D02*
Y-623880D01*
X537120D01*
Y-701380D02*
Y-623880D01*
X277750Y-339250D02*
X377750D01*
X277750D02*
Y-259250D01*
X377750D01*
Y-339250D02*
Y-259250D01*
X378340Y-512020D02*
Y-432020D01*
X278340D02*
X378340D01*
X278340Y-512020D02*
Y-432020D01*
Y-512020D02*
X378340D01*
X72890Y-84490D02*
X143890D01*
X72890D02*
Y-27490D01*
X143890D01*
Y-84490D02*
Y-27490D01*
Y-173709D02*
Y-116709D01*
X72890D02*
X143890D01*
X72890Y-173709D02*
Y-116709D01*
Y-173709D02*
X143890D01*
X72890Y-262927D02*
X143890D01*
X72890D02*
Y-205927D01*
X143890D01*
Y-262927D02*
Y-205927D01*
Y-352146D02*
Y-295146D01*
X72890D02*
X143890D01*
X72890Y-352146D02*
Y-295146D01*
Y-352146D02*
X143890D01*
X72890Y-441364D02*
X143890D01*
X72890D02*
Y-384364D01*
X143890D01*
Y-441364D02*
Y-384364D01*
Y-530583D02*
Y-473583D01*
X72890D02*
X143890D01*
X72890Y-530583D02*
Y-473583D01*
Y-530583D02*
X143890D01*
X72890Y-619801D02*
X143890D01*
X72890D02*
Y-562801D01*
X143890D01*
Y-619801D02*
Y-562801D01*
Y-709020D02*
Y-652020D01*
X72890D02*
X143890D01*
X72890Y-709020D02*
Y-652020D01*
Y-709020D02*
X143890D01*
X686130Y-559870D02*
X757130D01*
X686130D02*
Y-502870D01*
X757130D01*
Y-559870D02*
Y-502870D01*
X521050Y-255780D02*
X531050D01*
X526050Y-260780D02*
Y-250780D01*
X473550Y-308280D02*
Y-203280D01*
X578550Y-308280D02*
Y-203280D01*
X473550Y-308280D02*
X578550D01*
X473550Y-203280D02*
X578550D01*
X748490Y-661730D02*
X842490D01*
X748490D02*
Y-584230D01*
X842490D01*
Y-661730D02*
Y-584230D01*
X748490Y-188020D02*
X842490D01*
X748490D02*
Y-110520D01*
X842490D01*
Y-188020D02*
Y-110520D01*
D72*
X613250Y-254500D02*
X646750D01*
Y-273500D02*
Y-254500D01*
X613250Y-273500D02*
X646750D01*
X613250D02*
Y-254500D01*
X766250Y-521750D02*
X799750D01*
Y-540750D02*
Y-521750D01*
X766250Y-540750D02*
X799750D01*
X766250D02*
Y-521750D01*
X457150Y-463250D02*
Y-407450D01*
X538350D01*
Y-463250D02*
Y-407450D01*
X457150Y-463250D02*
X538350D01*
X494120Y-115140D02*
Y-98140D01*
X465620D02*
X494120D01*
X465620Y-115140D02*
Y-98140D01*
Y-115140D02*
X494120D01*
X543650Y-162850D02*
Y-133650D01*
X525850Y-162850D02*
X543650D01*
X525850D02*
Y-133650D01*
X543650D01*
X780270Y-280810D02*
Y-202810D01*
X680770D02*
X780270D01*
X680770Y-280810D02*
Y-202810D01*
Y-280810D02*
X780270D01*
Y-476390D02*
Y-398390D01*
X680770D02*
X780270D01*
X680770Y-476390D02*
Y-398390D01*
Y-476390D02*
X780270D01*
X701680Y-620880D02*
X735180D01*
X701680D02*
Y-601880D01*
X735180D01*
Y-620880D02*
Y-601880D01*
X655960Y-570130D02*
X689460D01*
Y-589130D02*
Y-570130D01*
X655960Y-589130D02*
X689460D01*
X655960D02*
Y-570130D01*
X423710Y-115140D02*
Y-98140D01*
Y-115140D02*
X452210D01*
Y-98140D01*
X423710D02*
X452210D01*
X146250Y-46490D02*
X179750D01*
Y-65490D02*
Y-46490D01*
X146250Y-65490D02*
X179750D01*
X146250D02*
Y-46490D01*
Y-135709D02*
X179750D01*
Y-154709D02*
Y-135709D01*
X146250Y-154709D02*
X179750D01*
X146250D02*
Y-135709D01*
Y-224927D02*
X179750D01*
Y-243927D02*
Y-224927D01*
X146250Y-243927D02*
X179750D01*
X146250D02*
Y-224927D01*
Y-314146D02*
X179750D01*
Y-333146D02*
Y-314146D01*
X146250Y-333146D02*
X179750D01*
X146250D02*
Y-314146D01*
Y-403364D02*
X179750D01*
Y-422364D02*
Y-403364D01*
X146250Y-422364D02*
X179750D01*
X146250D02*
Y-403364D01*
Y-492583D02*
X179750D01*
Y-511583D02*
Y-492583D01*
X146250Y-511583D02*
X179750D01*
X146250D02*
Y-492583D01*
Y-581801D02*
X179750D01*
Y-600801D02*
Y-581801D01*
X146250Y-600801D02*
X179750D01*
X146250D02*
Y-581801D01*
Y-671020D02*
X179750D01*
Y-690020D02*
Y-671020D01*
X146250Y-690020D02*
X179750D01*
X146250D02*
Y-671020D01*
M02*
